<svg width="17" height="20" viewBox="0 0 17 20" fill="none" xmlns="http://www.w3.org/2000/svg">
  <path
    d="M14.6667 10.4167V5.66666C14.6667 4.26653 14.6667 3.56646 14.3942 3.03168C14.1545 2.56128 13.7721 2.17882 13.3016 1.93914C12.7669 1.66666 12.0668 1.66666 10.6667 1.66666H5.33334C3.9332 1.66666 3.23314 1.66666 2.69836 1.93914C2.22795 2.17882 1.8455 2.56128 1.60582 3.03168C1.33334 3.56646 1.33334 4.26653 1.33334 5.66666V14.3333C1.33334 15.7335 1.33334 16.4335 1.60582 16.9683C1.8455 17.4387 2.22795 17.8212 2.69836 18.0608C3.23314 18.3333 3.93317 18.3333 5.33322 18.3333H8.41667M9.66667 9.16666H4.66667M6.33334 12.5H4.66667M11.3333 5.83332H4.66667M10.5 15.8333L13 18.3333M13 18.3333L15.5 15.8333M13 18.3333V13.3333"
    stroke="black" stroke-width="1.5" stroke-linecap="round" stroke-linejoin="round" />
</svg>