<svg width="20" height="18" viewBox="0 0 20 18" fill="none" xmlns="http://www.w3.org/2000/svg">
  <path
    d="M18.3333 16.5V14.8333C18.3333 13.2801 17.271 11.9751 15.8333 11.605M12.9167 1.7423C14.1383 2.23679 15 3.43443 15 4.83333C15 6.23224 14.1383 7.42988 12.9167 7.92437M14.1667 16.5C14.1667 14.9469 14.1667 14.1703 13.9129 13.5577C13.5746 12.741 12.9257 12.092 12.1089 11.7537C11.4964 11.5 10.7198 11.5 9.16667 11.5H6.66667C5.11353 11.5 4.33696 11.5 3.72439 11.7537C2.90763 12.092 2.25871 12.741 1.9204 13.5577C1.66667 14.1703 1.66667 14.9469 1.66667 16.5M11.25 4.83333C11.25 6.67428 9.75762 8.16667 7.91667 8.16667C6.07572 8.16667 4.58333 6.67428 4.58333 4.83333C4.58333 2.99238 6.07572 1.5 7.91667 1.5C9.75762 1.5 11.25 2.99238 11.25 4.83333Z"
    stroke="#141E0D" stroke-width="1.5" stroke-linecap="round" stroke-linejoin="round" />
</svg>